<?xml version="1.0" standalone="no"?>
<!DOCTYPE svg PUBLIC "-//W3C//DTD SVG 20010904//EN"
 "http://www.w3.org/TR/2001/REC-SVG-20010904/DTD/svg10.dtd">
<svg version="1.0" xmlns="http://www.w3.org/2000/svg"
 width="1080.000000pt" height="1080.000000pt" viewBox="0 0 1080.000000 1080.000000"
 preserveAspectRatio="xMidYMid meet">
<metadata>
Created by potrace 1.11, written by Peter Selinger 2001-2013
</metadata>
<g transform="translate(0.000000,1080.000000) scale(0.100000,-0.100000)"
fill="#000000" stroke="none">
<path d="M1930 8241 c0 -15 88 -117 161 -187 182 -172 391 -294 872 -508 l235
-104 223 -6 c463 -14 674 -32 857 -72 l73 -16 -77 -73 c-70 -66 -76 -75 -70
-101 14 -61 74 -115 150 -135 24 -7 71 -9 113 -5 l71 6 -9 -33 c-12 -42 -11
-133 2 -179 14 -53 53 -71 135 -66 42 3 61 0 56 -7 -3 -5 -25 -37 -49 -70 -98
-135 -79 -224 58 -272 50 -18 51 -19 45 -52 -11 -70 45 -131 118 -131 44 0
102 23 133 52 l23 21 -94 97 c-89 92 -169 211 -133 197 77 -30 123 -14 189 64
23 28 55 57 70 65 l27 14 -93 92 c-60 61 -103 114 -124 154 -18 34 -32 65 -32
69 0 3 14 4 31 0 77 -17 139 -22 139 -10 0 19 -56 98 -107 150 -96 97 -272
207 -383 238 -101 29 -278 56 -462 72 -281 23 -373 34 -503 60 -278 56 -540
151 -950 343 -82 38 -193 89 -245 112 -90 40 -316 154 -407 207 -24 14 -43 20
-43 14z"/>
<path d="M8540 8115 c-74 -40 -187 -97 -250 -126 -63 -29 -214 -98 -335 -155
-544 -252 -828 -334 -1305 -374 -490 -41 -614 -72 -814 -205 -108 -71 -246
-220 -246 -265 0 -12 72 -7 138 10 31 8 32 7 26 -13 -20 -68 -110 -187 -188
-249 -56 -44 -66 -58 -42 -58 7 0 47 -34 88 -75 65 -66 79 -75 111 -75 19 0
47 4 61 10 14 5 26 7 26 3 0 -25 -79 -133 -152 -206 -48 -49 -88 -90 -88 -91
0 -10 83 -59 114 -67 47 -13 105 2 137 37 20 21 24 35 23 80 -1 44 1 54 15 54
9 0 39 11 68 24 102 48 110 129 24 252 -28 41 -51 77 -51 80 0 4 21 4 48 1
105 -13 152 34 152 153 0 36 -4 79 -9 95 l-8 30 89 -4 c80 -3 94 0 143 24 59
28 92 65 101 114 6 28 0 37 -67 100 -40 39 -71 72 -69 75 10 8 207 45 300 55
129 14 236 20 566 31 l281 10 249 110 c419 187 636 310 815 463 67 58 188 191
197 217 6 17 -10 10 -148 -65z"/>
<path d="M1940 7822 c0 -16 237 -183 405 -284 67 -40 116 -61 193 -82 143 -38
254 -56 344 -56 90 0 185 17 171 31 -6 6 -77 34 -159 63 -82 29 -243 100 -359
157 -115 58 -243 115 -283 128 -126 39 -312 65 -312 43z"/>
<path d="M8445 7746 c-119 -32 -153 -46 -400 -168 -115 -57 -237 -112 -270
-122 -113 -35 -217 -78 -208 -87 4 -4 45 -12 90 -18 106 -13 217 -1 396 44
130 33 145 39 265 114 128 80 346 233 357 251 12 19 -137 10 -230 -14z"/>
<path d="M1900 7461 c-22 -7 -15 -13 75 -56 310 -147 471 -200 698 -230 127
-16 372 -21 381 -6 3 4 -47 40 -112 78 -99 60 -135 75 -237 102 -279 75 -728
137 -805 112z"/>
<path d="M8450 7399 c-157 -22 -416 -73 -539 -106 -102 -27 -149 -46 -197 -77
-35 -23 -85 -54 -112 -70 l-47 -30 45 -8 c55 -11 250 -2 387 18 119 17 273 59
393 107 119 47 360 160 360 170 0 10 -209 7 -290 -4z"/>
<path d="M3432 7340 c-179 -12 -422 -53 -422 -70 0 -22 257 -116 402 -147 137
-29 494 -21 637 14 14 4 29 19 38 42 8 20 33 55 54 78 58 63 54 69 -48 77
-153 11 -533 15 -661 6z"/>
<path d="M6585 7283 c-105 -8 -145 -15 -145 -25 0 -6 18 -30 40 -54 22 -24 47
-61 55 -82 l16 -39 82 -12 c144 -22 418 -26 534 -7 118 18 267 63 373 113 l75
35 -30 13 c-39 17 -191 42 -330 55 -99 9 -571 11 -670 3z"/>
<path d="M4065 7041 c-126 -101 -161 -209 -84 -255 25 -15 53 -20 117 -20 l85
-1 19 57 c11 32 37 76 60 103 22 25 39 47 37 49 -2 1 -24 14 -49 28 -25 15
-58 40 -74 57 -17 17 -35 31 -41 31 -5 0 -37 -22 -70 -49z"/>
<path d="M2455 7069 c-209 -11 -425 -46 -425 -68 0 -9 191 -70 335 -106 251
-64 686 -126 685 -99 0 5 -28 29 -62 53 -57 42 -59 45 -42 59 29 22 192 98
267 124 37 12 67 26 67 29 0 18 -529 23 -825 8z"/>
<path d="M3795 7053 c-279 -19 -531 -62 -635 -109 -89 -40 -90 -47 -12 -72
132 -42 238 -56 422 -56 96 -1 201 3 233 7 l57 8 0 37 c0 39 26 105 60 152 11
15 20 31 20 34 0 6 -48 6 -145 -1z"/>
<path d="M6440 6998 c-25 -22 -62 -49 -83 -60 l-38 -19 32 -36 c34 -39 79
-127 79 -155 0 -16 10 -18 73 -18 39 0 89 5 109 10 105 29 92 129 -32 243 -88
82 -87 82 -140 35z"/>
<path d="M7517 7020 c-92 -4 -169 -9 -172 -12 -3 -2 34 -19 83 -37 48 -19 127
-54 176 -79 l89 -46 -29 -25 c-17 -14 -45 -38 -64 -53 l-35 -27 85 -1 c97 0
410 52 605 101 153 39 335 98 335 108 0 5 -46 18 -102 30 -169 34 -650 55
-971 41z"/>
<path d="M6699 6969 c32 -49 53 -98 59 -141 2 -21 11 -43 19 -49 24 -20 379
-24 498 -5 119 18 260 57 259 71 -1 20 -115 66 -221 90 -138 31 -320 54 -498
62 l-139 6 23 -34z"/>
<path d="M4368 6915 c-92 -61 -120 -120 -82 -173 34 -49 125 -66 203 -38 46
16 48 29 11 56 -43 30 -54 55 -60 133 l-5 67 -67 -45z"/>
<path d="M6180 6840 c0 -70 0 -71 -45 -119 -25 -26 -45 -50 -45 -53 0 -3 21
-11 46 -18 130 -37 227 11 210 102 -7 37 -44 77 -118 127 l-48 32 0 -71z"/>
<path d="M3739 6765 c-174 -29 -457 -136 -446 -168 15 -47 281 -73 452 -43
187 32 407 83 416 97 20 31 10 49 -26 49 -52 0 -130 19 -208 51 -77 32 -80 32
-188 14z"/>
<path d="M6680 6692 c-61 -25 -105 -36 -157 -40 -60 -4 -73 -8 -73 -21 0 -39
25 -50 170 -81 259 -55 303 -62 435 -63 132 0 222 16 268 48 18 12 14 16 -53
50 -124 63 -320 120 -470 138 -24 3 -61 -7 -120 -31z"/>
<path d="M2774 6709 c-135 -8 -272 -37 -354 -75 -44 -20 -52 -27 -39 -35 10
-5 91 -33 180 -63 178 -59 345 -99 479 -116 143 -17 368 -11 355 10 -3 5 -40
27 -83 51 -110 60 -182 110 -182 125 0 7 16 26 36 41 20 15 48 38 63 50 l26
22 -180 -1 c-99 0 -234 -4 -301 -9z"/>
<path d="M4485 6649 c-55 -10 -123 -18 -151 -19 -51 0 -52 -1 -68 -40 -9 -22
-16 -62 -16 -89 0 -111 114 -160 246 -105 45 19 57 38 60 102 1 32 12 83 23
113 12 30 21 55 21 57 0 3 5 3 -115 -19z"/>
<path d="M7374 6659 c-2 -4 19 -21 46 -39 63 -40 78 -65 55 -90 -9 -9 -70 -48
-135 -85 -66 -37 -117 -72 -114 -76 9 -14 311 -10 414 6 52 7 147 27 210 44
121 31 379 117 393 130 13 13 -108 62 -206 83 -74 16 -148 21 -375 26 -156 4
-286 4 -288 1z"/>
<path d="M6020 6606 c0 -2 9 -23 19 -48 11 -24 23 -74 27 -110 4 -46 13 -73
25 -84 46 -41 165 -57 219 -29 58 30 77 121 44 205 l-16 40 -63 0 c-35 0 -99
7 -142 15 -77 15 -113 18 -113 11z"/>
<path d="M4065 6565 c-33 -8 -122 -26 -199 -40 -76 -14 -173 -39 -216 -54 -84
-31 -182 -90 -177 -106 13 -37 399 -51 592 -21 61 10 113 21 118 25 4 4 1 27
-8 50 -17 50 -20 114 -5 142 9 17 7 19 -17 18 -15 0 -55 -7 -88 -14z"/>
<path d="M6457 6470 c4 -44 1 -72 -12 -106 -9 -25 -15 -47 -13 -49 2 -2 49
-12 103 -22 182 -31 615 -19 615 17 0 14 -51 49 -114 80 -78 37 -181 65 -330
91 -66 11 -147 27 -180 34 -34 8 -64 15 -68 15 -3 0 -4 -27 -1 -60z"/>
<path d="M4590 6355 c-36 -7 -135 -18 -220 -24 -172 -12 -393 -43 -515 -72
-76 -18 -158 -62 -159 -84 0 -16 116 -34 259 -41 150 -8 349 13 505 52 115 29
240 86 240 109 0 18 -31 76 -40 74 -3 -1 -34 -7 -70 -14z"/>
<path d="M5935 6279 c-22 -41 -15 -54 42 -82 189 -96 592 -144 853 -102 52 9
96 18 98 20 10 9 -22 36 -74 61 -71 35 -330 79 -581 99 -105 8 -215 20 -244
25 -74 14 -77 13 -94 -21z"/>
<path d="M6162 5653 l3 -98 33 -3 32 -3 0 -365 0 -364 -35 0 -35 0 0 -100 0
-100 225 0 225 0 0 100 0 100 -45 0 -45 0 0 465 0 465 -180 0 -181 0 3 -97z"/>
<path d="M2760 5570 l0 -100 45 0 45 0 0 -325 0 -325 -45 0 -45 0 0 -100 0
-100 250 0 250 0 0 100 0 100 -50 0 -50 0 0 110 0 110 140 0 140 0 0 -110 0
-110 -45 0 -45 0 0 -100 0 -100 250 0 250 0 0 100 0 100 -45 0 -45 0 0 325 0
325 45 0 45 0 0 100 0 100 -250 0 -250 0 0 -100 0 -100 45 0 45 0 0 -115 0
-115 -140 0 -140 0 0 115 0 115 50 0 50 0 0 100 0 100 -250 0 -250 0 0 -100z"/>
<path d="M5820 5556 l-125 -43 -3 -71 -3 -72 -39 0 -40 0 0 -100 0 -100 39 0
39 0 4 -212 c5 -227 11 -262 56 -310 44 -47 98 -61 214 -56 57 3 115 10 131
16 27 11 27 12 27 112 0 55 -1 100 -2 100 -2 0 -25 -7 -51 -15 -52 -16 -79 -9
-91 21 -3 8 -6 90 -6 180 l0 164 75 0 75 0 0 100 0 100 -75 0 -75 0 0 115 c0
86 -3 115 -12 114 -7 0 -69 -20 -138 -43z"/>
<path d="M7914 5391 c-22 -10 -56 -37 -75 -59 l-35 -41 -22 45 -22 45 -143 -3
-142 -3 0 -100 0 -100 33 -3 32 -3 0 -175 0 -174 -35 0 -35 0 0 -100 0 -100
220 0 220 0 0 100 0 100 -40 0 -40 0 0 89 c0 49 3 102 6 120 12 60 57 89 167
106 l37 6 0 134 0 135 -42 0 c-24 0 -61 -9 -84 -19z"/>
<path d="M5006 5370 c-54 -21 -109 -68 -133 -114 -24 -46 -19 -139 9 -194 35
-68 92 -106 211 -143 168 -51 172 -53 175 -78 5 -34 -11 -45 -68 -43 -60 1
-128 35 -136 69 -6 22 -10 23 -110 23 l-104 0 0 -135 0 -136 98 3 97 3 3 33
c4 38 12 40 38 11 78 -88 295 -93 397 -8 119 98 107 272 -26 356 -22 14 -92
43 -155 64 -130 44 -162 61 -162 89 0 22 40 53 61 46 8 -2 26 -7 41 -10 36 -8
98 -63 98 -87 0 -17 9 -19 105 -19 l105 0 0 134 c0 113 -2 135 -16 140 -9 3
-54 6 -100 6 l-84 0 0 -40 c0 -45 -8 -50 -36 -19 -10 12 -41 32 -69 45 -64 30
-167 32 -239 4z"/>
<path d="M6910 5376 c-191 -55 -302 -239 -271 -448 23 -147 108 -262 231 -310
76 -29 241 -36 331 -14 73 19 150 54 194 89 l29 24 -28 34 c-16 19 -44 51 -63
72 l-34 38 -64 -32 c-114 -56 -242 -42 -280 31 -32 62 -38 60 220 60 l234 0 7
36 c12 63 -1 185 -25 239 -30 68 -91 128 -165 161 -52 24 -76 29 -166 31 -64
1 -123 -3 -150 -11z m209 -210 c14 -11 41 -67 41 -86 0 -6 -41 -10 -110 -10
-73 0 -110 4 -110 11 0 24 32 77 53 87 49 23 96 23 126 -2z"/>
<path d="M3900 5270 l0 -100 29 0 28 0 6 -172 c5 -195 19 -257 69 -314 49 -56
100 -77 199 -82 105 -5 142 6 203 60 l47 40 17 -41 17 -41 148 0 147 0 0 100
0 100 -40 0 -40 0 0 275 0 275 -195 0 -195 0 0 -100 0 -100 51 0 51 0 -4 -139
c-3 -123 -6 -143 -24 -167 -23 -32 -60 -45 -91 -33 -44 16 -48 40 -51 297 l-4
242 -184 0 -184 0 0 -100z"/>
<path d="M6660 4240 l0 -100 30 0 30 0 0 -365 0 -365 -30 0 -30 0 0 -100 0
-100 205 0 205 0 0 105 0 105 -25 0 c-24 0 -25 3 -25 59 0 50 4 62 22 75 20
15 23 13 70 -53 26 -38 48 -71 48 -74 0 -3 -10 -7 -22 -9 -22 -3 -23 -8 -26
-105 l-3 -103 226 0 225 0 0 105 0 105 -39 0 c-39 0 -40 1 -133 132 -51 73
-94 135 -96 139 -2 4 20 21 48 38 40 25 61 31 105 31 l55 0 0 100 0 100 -210
0 -210 0 0 -99 0 -100 46 -3 46 -3 -73 -42 -74 -43 -3 335 -2 335 -180 0 -180
0 0 -100z"/>
<path d="M3280 4160 l0 -100 45 0 45 0 0 -325 0 -325 -45 0 -45 0 0 -100 0
-100 250 0 250 0 0 100 0 100 -50 0 -50 0 0 110 0 110 140 0 140 0 0 -110 0
-110 -45 0 -45 0 0 -100 0 -100 250 0 250 0 0 100 0 100 -45 0 -45 0 0 325 0
325 45 0 45 0 0 100 0 100 -250 0 -250 0 0 -100 0 -100 45 0 45 0 0 -115 0
-115 -140 0 -140 0 0 115 0 115 50 0 50 0 0 100 0 100 -250 0 -250 0 0 -100z"/>
<path d="M4622 3974 c-67 -22 -126 -49 -159 -72 -10 -6 -6 -28 18 -93 17 -46
32 -85 33 -87 2 -1 29 9 61 23 156 69 305 48 305 -44 l0 -30 -42 19 c-58 26
-160 26 -230 0 -113 -42 -178 -126 -186 -240 -4 -61 -1 -76 22 -124 49 -101
155 -153 292 -144 75 5 152 39 172 75 8 14 12 12 26 -15 l17 -32 164 0 165 0
0 95 0 95 -45 0 -45 0 0 168 c0 195 -11 246 -66 310 -95 112 -327 156 -502 96z
m241 -472 c39 -35 8 -104 -54 -117 -65 -14 -119 49 -89 103 25 43 101 51 143
14z"/>
<path d="M5300 3861 l0 -100 31 -3 32 -3 52 -170 c29 -93 67 -216 84 -272 l32
-103 158 0 158 0 49 155 c27 85 52 155 55 155 3 0 11 -19 18 -42 7 -24 28 -94
47 -155 l35 -113 163 0 162 0 18 58 c10 31 49 155 87 275 l70 217 29 0 30 0 0
100 0 100 -185 0 -185 0 0 -100 0 -100 30 0 c17 0 30 -1 30 -2 0 -2 -7 -25
-16 -53 -9 -27 -24 -95 -34 -150 -10 -55 -19 -88 -19 -74 -2 45 -40 218 -78
352 l-36 127 -143 0 -143 0 -11 -42 c-7 -24 -22 -81 -35 -128 -28 -102 -55
-239 -56 -289 0 -24 -7 -7 -19 54 -10 50 -26 113 -34 140 -20 65 -20 65 9 65
l25 0 0 100 0 100 -205 0 -205 0 0 -99z"/>
</g>
</svg>
